<mxfile host="app.diagrams.net" modified="2021-08-06T04:10:17.971Z" agent="5.0 (Windows NT 10.0; Win64; x64) AppleWebKit/537.36 (KHTML, like Gecko) Chrome/92.0.4515.131 Safari/537.36" etag="g4tRN_DeBY95b2Xdhz5n" version="14.9.4" type="github">
  <diagram id="R2lEEEUBdFMjLlhIrx00" name="Page-1">
    <mxGraphModel dx="868" dy="482" grid="1" gridSize="10" guides="1" tooltips="1" connect="1" arrows="1" fold="1" page="1" pageScale="1" pageWidth="850" pageHeight="1100" math="0" shadow="0" extFonts="Permanent Marker^https://fonts.googleapis.com/css?family=Permanent+Marker">
      <root>
        <mxCell id="0" />
        <mxCell id="1" parent="0" />
        <mxCell id="sRzd6B2tmTLXoQg6gZ5L-2" value="" style="rounded=1;whiteSpace=wrap;html=1;" vertex="1" parent="1">
          <mxGeometry y="10" width="820" height="60" as="geometry" />
        </mxCell>
        <mxCell id="sRzd6B2tmTLXoQg6gZ5L-3" value="лого" style="rounded=0;whiteSpace=wrap;html=1;" vertex="1" parent="1">
          <mxGeometry x="110" y="25" width="80" height="30" as="geometry" />
        </mxCell>
        <mxCell id="sRzd6B2tmTLXoQg6gZ5L-4" value="выподающий список" style="rounded=0;whiteSpace=wrap;html=1;" vertex="1" parent="1">
          <mxGeometry x="10" y="30" width="80" height="30" as="geometry" />
        </mxCell>
        <mxCell id="sRzd6B2tmTLXoQg6gZ5L-5" value="каталог товара" style="rounded=0;whiteSpace=wrap;html=1;" vertex="1" parent="1">
          <mxGeometry x="200" y="22.5" width="90" height="35" as="geometry" />
        </mxCell>
        <mxCell id="sRzd6B2tmTLXoQg6gZ5L-6" value="поиск на сайте" style="rounded=0;whiteSpace=wrap;html=1;" vertex="1" parent="1">
          <mxGeometry x="305" y="25" width="235" height="25" as="geometry" />
        </mxCell>
        <mxCell id="sRzd6B2tmTLXoQg6gZ5L-7" value="языки" style="rounded=0;whiteSpace=wrap;html=1;" vertex="1" parent="1">
          <mxGeometry x="548" y="27.5" width="50" height="20" as="geometry" />
        </mxCell>
        <mxCell id="sRzd6B2tmTLXoQg6gZ5L-8" value="личный кабинет пользователя" style="rounded=0;whiteSpace=wrap;html=1;" vertex="1" parent="1">
          <mxGeometry x="619" y="27.5" width="130" height="32.5" as="geometry" />
        </mxCell>
        <mxCell id="sRzd6B2tmTLXoQg6gZ5L-10" value="карзина" style="rounded=0;whiteSpace=wrap;html=1;" vertex="1" parent="1">
          <mxGeometry x="770" y="20" width="40" height="40" as="geometry" />
        </mxCell>
      </root>
    </mxGraphModel>
  </diagram>
</mxfile>
